<svg xmlns="http://www.w3.org/2000/svg" width="810" viewBox="0 0 810 810" height="810" version="1.0"><path d="M 405 0 C 181.324219 0 0 181.324219 0 405 C 0 628.675781 181.324219 810 405 810 C 628.675781 810 810 628.675781 810 405 C 810 181.324219 628.675781 0 405 0"/><path fill="#FFF" d="M 404.890625 22.765625 C 193.851562 22.765625 22.765625 193.851562 22.765625 404.890625 C 22.765625 615.933594 193.851562 787.015625 404.890625 787.015625 C 615.933594 787.015625 787.015625 615.933594 787.015625 404.890625 C 787.015625 193.851562 615.933594 22.765625 404.890625 22.765625"/><path d="M 404.839844 43.714844 C 205.394531 43.714844 43.714844 205.394531 43.714844 404.839844 C 43.714844 604.28125 205.394531 765.964844 404.839844 765.964844 C 604.28125 765.964844 765.964844 604.28125 765.964844 404.839844 C 765.964844 205.394531 604.28125 43.714844 404.839844 43.714844"/><path fill="#FFF" d="M 161.613281 431.710938 L 115.289062 431.710938 C 113.378906 431.710938 111.824219 430.15625 111.824219 428.246094 L 111.824219 381.921875 C 111.824219 380.015625 113.378906 378.460938 115.289062 378.460938 L 161.613281 378.460938 C 163.519531 378.460938 165.074219 380.015625 165.074219 381.921875 L 165.074219 428.246094 C 165.074219 430.15625 163.519531 431.710938 161.613281 431.710938"/><path fill="#FFF" d="M 312.230469 444.804688 L 243.070312 444.804688 C 240.222656 444.804688 237.902344 442.484375 237.902344 439.636719 L 237.902344 370.476562 C 237.902344 367.628906 240.222656 365.304688 243.070312 365.304688 L 312.230469 365.304688 C 315.078125 365.304688 317.402344 367.628906 317.402344 370.476562 L 317.402344 439.636719 C 317.402344 442.484375 315.078125 444.804688 312.230469 444.804688"/><path fill="#FFF" d="M 487.753906 457.113281 L 397.0625 457.113281 C 393.328125 457.113281 390.28125 454.070312 390.28125 450.335938 L 390.28125 359.644531 C 390.28125 355.910156 393.328125 352.863281 397.0625 352.863281 L 487.753906 352.863281 C 491.488281 352.863281 494.53125 355.910156 494.53125 359.644531 L 494.53125 450.335938 C 494.53125 454.070312 491.488281 457.113281 487.753906 457.113281"/><path fill="#FFF" d="M 689.5625 470.1875 L 576.035156 470.1875 C 571.359375 470.1875 567.546875 466.375 567.546875 461.699219 L 567.546875 348.171875 C 567.546875 343.496094 571.359375 339.6875 576.035156 339.6875 L 689.5625 339.6875 C 694.238281 339.6875 698.046875 343.496094 698.046875 348.171875 L 698.046875 461.699219 C 698.046875 466.375 694.238281 470.1875 689.5625 470.1875"/></svg>